<svg width="615" height="644" viewBox="0 0 615 644" fill="none" xmlns="http://www.w3.org/2000/svg">
<path d="M614.19 483.952C614.157 492.855 614.507 501.342 614.028 509.782C613.62 516.951 609.73 522.193 603.01 525.215C584.331 533.615 565.67 542.056 547.025 550.53C537.78 554.732 528.622 559.128 519.356 563.281C508.488 568.152 503.811 567.177 497.105 557.622C481.319 535.133 465.851 512.42 450.209 489.829C447.109 485.352 443.808 481.015 439.413 476.861C439.273 478.895 439.012 480.93 439.011 482.964C438.985 517.461 439.005 551.958 438.982 586.455C438.975 597.857 436.067 601.459 425.606 606.027C405.772 614.687 386.13 623.787 366.405 632.7C359.73 635.716 353.114 638.878 346.353 641.688C335.691 646.121 327.048 640.409 327.044 628.894C327.006 523.07 327.029 417.245 327.004 311.421C327.002 302.162 330.757 295.668 339.459 291.718C369.784 277.954 399.978 263.898 430.254 250.025C438.889 246.068 444.342 247.405 449.689 255.11C466.865 279.863 483.886 304.724 500.971 329.541C502.459 331.702 503.976 333.844 506.655 335.848C506.782 333.858 507.016 331.868 507.018 329.877C507.049 296.214 507.24 262.548 506.942 228.887C506.855 218.979 510.346 212.946 519.784 208.934C543.993 198.642 567.831 187.478 591.827 176.683C602.527 171.87 612.545 176.951 614.052 188.417C614.825 194.294 614.394 200.336 614.399 206.303C614.401 208.961 614.005 211.62 614.014 214.278C614.119 244.769 614.341 275.26 614.382 305.75C614.416 332.046 614.218 358.341 614.194 384.636C614.163 417.596 614.203 450.556 614.19 483.952Z" fill="#D42A2A"/>
<path d="M275.323 291.06C284.569 299.64 289.425 309.645 289.291 322.206C289.03 346.703 289.215 371.205 289.216 395.704C289.216 426.663 289.216 457.621 289.215 488.58C289.215 532.728 288.809 576.882 289.437 621.021C289.651 636.053 276.283 648.774 258.247 640.526C237.195 630.9 216.449 620.605 195.564 610.613C156.952 592.141 118.34 573.667 79.7184 555.216C64.0897 547.75 48.6957 539.713 32.7298 533.05C8.23316 522.827 -1.4208 504.608 0.166938 478.834C1.03545 464.735 0.831 450.559 0.796088 436.418C0.714682 403.452 0.362753 370.486 0.27175 337.519C0.184882 306.056 0.278755 274.593 0.314887 243.13C0.331321 228.817 0.451636 214.504 0.431601 200.191C0.408865 183.936 14.8494 173.801 30.508 179.691C42.3459 184.145 53.9152 189.339 65.4831 194.476C83.2868 202.383 100.979 210.541 118.733 218.559C145.589 230.688 172.456 242.793 199.322 254.901C218.906 263.728 238.547 272.429 258.048 281.434C263.91 284.141 269.387 287.682 275.323 291.06ZM145.371 330.568C140.509 328.399 135.765 325.898 130.762 324.128C119.573 320.171 111.171 325.113 108.896 336.668C108.576 338.294 108.288 339.961 108.286 341.609C108.255 378.082 108.156 414.556 108.326 451.029C108.389 464.417 114.748 474.201 126.926 479.971C134.145 483.392 141.402 486.738 148.718 489.944C161.591 495.585 171.164 489.426 171.207 475.265C171.322 436.96 171.237 398.654 171.29 360.349C171.299 353.677 169.48 347.406 164.521 343.21C158.908 338.459 152.257 334.935 145.371 330.568Z" fill="white"/>
<path d="M541.436 102.771C554.163 108.674 566.548 114.421 578.951 120.129C584.127 122.512 587.799 125.911 588.058 132.093C588.334 138.691 584.345 142.153 579.06 144.565C553.763 156.11 528.449 167.617 503.108 179.062C472.765 192.766 442.393 206.405 412.024 220.051C393.2 228.509 374.366 236.945 355.522 245.359C343.969 250.518 332.397 255.635 320.819 260.737C309.262 265.831 297.959 265.066 286.549 259.832C251.436 243.725 216.21 227.862 181.056 211.844C155.758 200.316 130.512 188.675 105.228 177.116C82.8189 166.872 60.3847 156.683 37.9732 146.444C31.9376 143.686 25.9325 140.715 26.0006 132.747C26.0685 124.796 31.5702 121.433 38.0399 118.541C67.3659 105.43 96.626 92.1697 125.848 78.8273C166.133 60.4335 206.353 41.8967 246.62 23.4644C261.301 16.7444 275.934 9.90169 290.787 3.58215C300.748 -0.655718 311.03 -1.53891 321.34 3.14694C340.742 11.9647 360.218 20.6219 379.655 29.3625C405.763 41.1029 431.89 52.8033 457.961 64.6249C481.767 75.4189 505.509 86.3528 529.281 97.2221C533.218 99.0224 537.162 100.807 541.436 102.771Z" fill="white"/>
</svg>
